<mxfile host="app.diagrams.net" modified="2023-04-05T18:59:57.779Z" agent="Mozilla/5.0 (Windows NT 10.0; Win64; x64; rv:109.0) Gecko/20100101 Firefox/111.0" etag="F3q3ZGrwTsOnMlUV9D1P" version="21.1.4" type="github">
  <diagram name="Página-1" id="kLLfpwYvuvGkneWplXUD">
    <mxGraphModel dx="1985" dy="1010" grid="1" gridSize="10" guides="0" tooltips="1" connect="1" arrows="1" fold="1" page="1" pageScale="1" pageWidth="1600" pageHeight="900" math="0" shadow="0">
      <root>
        <mxCell id="0" />
        <mxCell id="1" parent="0" />
        <mxCell id="Tp3x3xsuuLPvGS7GtfCE-5" value="" style="edgeStyle=orthogonalEdgeStyle;rounded=0;orthogonalLoop=1;jettySize=auto;html=1;fontSize=23;" edge="1" parent="1" source="Tp3x3xsuuLPvGS7GtfCE-1" target="Tp3x3xsuuLPvGS7GtfCE-4">
          <mxGeometry relative="1" as="geometry" />
        </mxCell>
        <mxCell id="Tp3x3xsuuLPvGS7GtfCE-1" value="Usuário rola o&lt;br&gt;dado" style="rounded=1;html=1;fillColor=#fff2cc;strokeColor=#d6b656;fontColor=#000000;fontSize=28;whiteSpace=wrap;fontStyle=0;fontFamily=Tahoma;" vertex="1" parent="1">
          <mxGeometry x="40" y="70" width="220" height="100" as="geometry" />
        </mxCell>
        <mxCell id="Tp3x3xsuuLPvGS7GtfCE-7" value="" style="edgeStyle=orthogonalEdgeStyle;rounded=0;orthogonalLoop=1;jettySize=auto;html=1;fontSize=23;" edge="1" parent="1" source="Tp3x3xsuuLPvGS7GtfCE-4">
          <mxGeometry relative="1" as="geometry">
            <mxPoint x="560" y="120" as="targetPoint" />
          </mxGeometry>
        </mxCell>
        <mxCell id="Tp3x3xsuuLPvGS7GtfCE-4" value="&lt;font style=&quot;font-size: 23px;&quot; color=&quot;#000000&quot;&gt;gera um valor aleatorio&lt;br style=&quot;font-size: 23px;&quot;&gt;&lt;/font&gt;" style="whiteSpace=wrap;html=1;fontSize=23;fillColor=#d5e8d4;strokeColor=#82b366;rounded=1;fontStyle=0;fontFamily=Tahoma;" vertex="1" parent="1">
          <mxGeometry x="320" y="70" width="180" height="100" as="geometry" />
        </mxCell>
        <mxCell id="Tp3x3xsuuLPvGS7GtfCE-10" value="" style="edgeStyle=orthogonalEdgeStyle;rounded=0;orthogonalLoop=1;jettySize=auto;html=1;fontSize=23;" edge="1" parent="1" source="Tp3x3xsuuLPvGS7GtfCE-8" target="Tp3x3xsuuLPvGS7GtfCE-9">
          <mxGeometry relative="1" as="geometry" />
        </mxCell>
        <mxCell id="Tp3x3xsuuLPvGS7GtfCE-8" value="&lt;font style=&quot;font-size: 23px;&quot; color=&quot;#000000&quot;&gt;mostra o valor na tela&lt;br style=&quot;font-size: 23px;&quot;&gt;&lt;/font&gt;" style="whiteSpace=wrap;html=1;fontSize=23;fillColor=#d5e8d4;strokeColor=#82b366;rounded=1;fontStyle=0;fontFamily=Tahoma;" vertex="1" parent="1">
          <mxGeometry x="560" y="70" width="180" height="100" as="geometry" />
        </mxCell>
        <mxCell id="Tp3x3xsuuLPvGS7GtfCE-12" value="&lt;div style=&quot;font-size: 23px;&quot;&gt;&lt;font style=&quot;font-size: 23px;&quot;&gt;Não&lt;/font&gt;&lt;/div&gt;&lt;div style=&quot;font-size: 23px;&quot;&gt;&lt;font style=&quot;font-size: 23px;&quot;&gt;&lt;br style=&quot;font-size: 23px;&quot;&gt;&lt;/font&gt;&lt;/div&gt;&lt;div style=&quot;font-size: 23px;&quot;&gt;&lt;font style=&quot;font-size: 23px;&quot;&gt;&lt;br style=&quot;font-size: 23px;&quot;&gt;&lt;/font&gt;&lt;/div&gt;" style="edgeStyle=orthogonalEdgeStyle;rounded=0;orthogonalLoop=1;jettySize=auto;html=1;labelBackgroundColor=none;fontColor=#000000;fontSize=23;" edge="1" parent="1" source="Tp3x3xsuuLPvGS7GtfCE-9" target="Tp3x3xsuuLPvGS7GtfCE-11">
          <mxGeometry x="-0.25" y="10" relative="1" as="geometry">
            <mxPoint as="offset" />
          </mxGeometry>
        </mxCell>
        <mxCell id="Tp3x3xsuuLPvGS7GtfCE-9" value="&lt;font style=&quot;font-size: 23px;&quot; color=&quot;#000000&quot;&gt;è 1?&lt;br style=&quot;font-size: 23px;&quot;&gt;&lt;/font&gt;" style="rhombus;whiteSpace=wrap;html=1;fontSize=23;fillColor=#dae8fc;strokeColor=#6c8ebf;rounded=1;fontStyle=0;fontFamily=Tahoma;" vertex="1" parent="1">
          <mxGeometry x="870" y="80" width="160" height="80" as="geometry" />
        </mxCell>
        <mxCell id="Tp3x3xsuuLPvGS7GtfCE-14" value="" style="edgeStyle=orthogonalEdgeStyle;rounded=0;orthogonalLoop=1;jettySize=auto;html=1;fontSize=23;" edge="1" parent="1" source="Tp3x3xsuuLPvGS7GtfCE-11" target="Tp3x3xsuuLPvGS7GtfCE-13">
          <mxGeometry relative="1" as="geometry" />
        </mxCell>
        <mxCell id="Tp3x3xsuuLPvGS7GtfCE-11" value="&lt;font style=&quot;font-size: 23px;&quot; color=&quot;#000000&quot;&gt;add o valor a pontuação&lt;br style=&quot;font-size: 23px;&quot;&gt;&lt;/font&gt;" style="whiteSpace=wrap;html=1;fontSize=23;fillColor=#d5e8d4;strokeColor=#82b366;rounded=1;fontStyle=0;fontFamily=Tahoma;" vertex="1" parent="1">
          <mxGeometry x="1110" y="70" width="180" height="100" as="geometry" />
        </mxCell>
        <mxCell id="Tp3x3xsuuLPvGS7GtfCE-13" value="&lt;font style=&quot;font-size: 23px;&quot; color=&quot;#000000&quot;&gt;mostra a nova pontuação&lt;br style=&quot;font-size: 23px;&quot;&gt;&lt;/font&gt;" style="whiteSpace=wrap;html=1;fontSize=23;fillColor=#d5e8d4;strokeColor=#82b366;rounded=1;fontStyle=0;fontFamily=Tahoma;" vertex="1" parent="1">
          <mxGeometry x="1370" y="70" width="180" height="100" as="geometry" />
        </mxCell>
        <mxCell id="Tp3x3xsuuLPvGS7GtfCE-19" value="" style="edgeStyle=orthogonalEdgeStyle;rounded=0;orthogonalLoop=1;jettySize=auto;html=1;fontSize=23;" edge="1" parent="1" source="Tp3x3xsuuLPvGS7GtfCE-15" target="Tp3x3xsuuLPvGS7GtfCE-9">
          <mxGeometry relative="1" as="geometry" />
        </mxCell>
        <mxCell id="Tp3x3xsuuLPvGS7GtfCE-15" value="&lt;div style=&quot;font-size: 23px;&quot;&gt;Passa a vez&lt;/div&gt;" style="whiteSpace=wrap;html=1;fontSize=23;fillColor=#d5e8d4;strokeColor=#82b366;rounded=1;fontStyle=0;fontFamily=Tahoma;" vertex="1" parent="1">
          <mxGeometry x="860" y="230" width="180" height="100" as="geometry" />
        </mxCell>
        <mxCell id="Tp3x3xsuuLPvGS7GtfCE-22" value="Não" style="edgeStyle=orthogonalEdgeStyle;rounded=0;orthogonalLoop=1;jettySize=auto;html=1;fontSize=23;" edge="1" parent="1" source="Tp3x3xsuuLPvGS7GtfCE-20" target="Tp3x3xsuuLPvGS7GtfCE-15">
          <mxGeometry x="-0.3333" y="20" relative="1" as="geometry">
            <mxPoint x="-1" as="offset" />
          </mxGeometry>
        </mxCell>
        <mxCell id="Tp3x3xsuuLPvGS7GtfCE-28" value="Sim" style="edgeStyle=orthogonalEdgeStyle;rounded=0;orthogonalLoop=1;jettySize=auto;html=1;fontSize=23;" edge="1" parent="1" source="Tp3x3xsuuLPvGS7GtfCE-20" target="Tp3x3xsuuLPvGS7GtfCE-27">
          <mxGeometry x="-0.1026" y="-28" relative="1" as="geometry">
            <Array as="points">
              <mxPoint x="658" y="370" />
              <mxPoint x="658" y="370" />
            </Array>
            <mxPoint y="1" as="offset" />
          </mxGeometry>
        </mxCell>
        <mxCell id="Tp3x3xsuuLPvGS7GtfCE-20" value="Score &amp;gt;= 100?&lt;font style=&quot;font-size: 23px;&quot; color=&quot;#000000&quot;&gt;&lt;br style=&quot;font-size: 23px;&quot;&gt;&lt;/font&gt;" style="rhombus;whiteSpace=wrap;html=1;fontSize=23;fillColor=#dae8fc;strokeColor=#6c8ebf;rounded=1;fontStyle=0;fontFamily=Tahoma;" vertex="1" parent="1">
          <mxGeometry x="560" y="222.5" width="195" height="115" as="geometry" />
        </mxCell>
        <mxCell id="Tp3x3xsuuLPvGS7GtfCE-16" value="Sim" style="edgeStyle=orthogonalEdgeStyle;rounded=0;orthogonalLoop=1;jettySize=auto;html=1;fontSize=23;" edge="1" parent="1" source="Tp3x3xsuuLPvGS7GtfCE-9" target="Tp3x3xsuuLPvGS7GtfCE-15">
          <mxGeometry x="0.1429" y="-40" relative="1" as="geometry">
            <mxPoint as="offset" />
          </mxGeometry>
        </mxCell>
        <mxCell id="Tp3x3xsuuLPvGS7GtfCE-24" value="" style="edgeStyle=orthogonalEdgeStyle;rounded=0;orthogonalLoop=1;jettySize=auto;html=1;" edge="1" parent="1" source="Tp3x3xsuuLPvGS7GtfCE-23" target="Tp3x3xsuuLPvGS7GtfCE-20">
          <mxGeometry relative="1" as="geometry" />
        </mxCell>
        <mxCell id="Tp3x3xsuuLPvGS7GtfCE-23" value="add a pontuação ao Total Score&lt;font style=&quot;font-size: 23px;&quot; color=&quot;#000000&quot;&gt;&lt;br style=&quot;font-size: 23px;&quot;&gt;&lt;/font&gt;" style="whiteSpace=wrap;html=1;fontSize=23;fillColor=#d5e8d4;strokeColor=#82b366;rounded=1;fontStyle=0;fontFamily=Tahoma;" vertex="1" parent="1">
          <mxGeometry x="320" y="230" width="180" height="100" as="geometry" />
        </mxCell>
        <mxCell id="Tp3x3xsuuLPvGS7GtfCE-26" value="" style="edgeStyle=orthogonalEdgeStyle;rounded=0;orthogonalLoop=1;jettySize=auto;html=1;" edge="1" parent="1" source="Tp3x3xsuuLPvGS7GtfCE-25" target="Tp3x3xsuuLPvGS7GtfCE-23">
          <mxGeometry relative="1" as="geometry" />
        </mxCell>
        <mxCell id="Tp3x3xsuuLPvGS7GtfCE-25" value="Usuário salva a pontuação" style="rounded=1;html=1;fillColor=#fff2cc;strokeColor=#d6b656;fontColor=#000000;fontSize=28;whiteSpace=wrap;fontStyle=0;fontFamily=Tahoma;" vertex="1" parent="1">
          <mxGeometry x="40" y="230" width="220" height="100" as="geometry" />
        </mxCell>
        <mxCell id="Tp3x3xsuuLPvGS7GtfCE-27" value="Jogador atual vence!&lt;font style=&quot;font-size: 23px;&quot; color=&quot;#000000&quot;&gt;&lt;br style=&quot;font-size: 23px;&quot;&gt;&lt;/font&gt;" style="whiteSpace=wrap;html=1;fontSize=23;fillColor=#f8cecc;strokeColor=#b85450;rounded=1;fontStyle=0;fontFamily=Tahoma;" vertex="1" parent="1">
          <mxGeometry x="560" y="420" width="180" height="100" as="geometry" />
        </mxCell>
        <mxCell id="Tp3x3xsuuLPvGS7GtfCE-32" value="" style="edgeStyle=orthogonalEdgeStyle;rounded=0;orthogonalLoop=1;jettySize=auto;html=1;" edge="1" parent="1" source="Tp3x3xsuuLPvGS7GtfCE-29" target="Tp3x3xsuuLPvGS7GtfCE-30">
          <mxGeometry relative="1" as="geometry" />
        </mxCell>
        <mxCell id="Tp3x3xsuuLPvGS7GtfCE-29" value="Usuário reinicia o jogo" style="rounded=1;html=1;fillColor=#fff2cc;strokeColor=#d6b656;fontColor=#000000;fontSize=28;whiteSpace=wrap;fontStyle=0;fontFamily=Tahoma;" vertex="1" parent="1">
          <mxGeometry x="40" y="570" width="220" height="100" as="geometry" />
        </mxCell>
        <mxCell id="Tp3x3xsuuLPvGS7GtfCE-34" value="" style="edgeStyle=orthogonalEdgeStyle;rounded=0;orthogonalLoop=1;jettySize=auto;html=1;" edge="1" parent="1" source="Tp3x3xsuuLPvGS7GtfCE-30" target="Tp3x3xsuuLPvGS7GtfCE-33">
          <mxGeometry relative="1" as="geometry" />
        </mxCell>
        <mxCell id="Tp3x3xsuuLPvGS7GtfCE-30" value="A pontuação volta a ser 0&lt;font style=&quot;font-size: 23px;&quot; color=&quot;#000000&quot;&gt;&lt;br style=&quot;font-size: 23px;&quot;&gt;&lt;/font&gt;" style="whiteSpace=wrap;html=1;fontSize=23;fillColor=#d5e8d4;strokeColor=#82b366;rounded=1;fontStyle=0;fontFamily=Tahoma;" vertex="1" parent="1">
          <mxGeometry x="320" y="570" width="180" height="100" as="geometry" />
        </mxCell>
        <mxCell id="Tp3x3xsuuLPvGS7GtfCE-33" value="Jogador 1 começa a partida&lt;font style=&quot;font-size: 23px;&quot; color=&quot;#000000&quot;&gt;&lt;br style=&quot;font-size: 23px;&quot;&gt;&lt;/font&gt;" style="whiteSpace=wrap;html=1;fontSize=23;fillColor=#d5e8d4;strokeColor=#82b366;rounded=1;fontStyle=0;fontFamily=Tahoma;" vertex="1" parent="1">
          <mxGeometry x="560" y="570" width="180" height="100" as="geometry" />
        </mxCell>
        <mxCell id="Tp3x3xsuuLPvGS7GtfCE-35" value="" style="edgeStyle=orthogonalEdgeStyle;rounded=0;orthogonalLoop=1;jettySize=auto;html=1;fontSize=23;" edge="1" target="Tp3x3xsuuLPvGS7GtfCE-37" parent="1">
          <mxGeometry relative="1" as="geometry">
            <mxPoint x="260" y="120" as="sourcePoint" />
          </mxGeometry>
        </mxCell>
        <mxCell id="Tp3x3xsuuLPvGS7GtfCE-36" value="" style="edgeStyle=orthogonalEdgeStyle;rounded=0;orthogonalLoop=1;jettySize=auto;html=1;fontSize=23;" edge="1" source="Tp3x3xsuuLPvGS7GtfCE-37" parent="1">
          <mxGeometry relative="1" as="geometry">
            <mxPoint x="560" y="120" as="targetPoint" />
          </mxGeometry>
        </mxCell>
        <mxCell id="Tp3x3xsuuLPvGS7GtfCE-37" value="&lt;font style=&quot;font-size: 23px;&quot; color=&quot;#000000&quot;&gt;gera um valor aleatorio&lt;br style=&quot;font-size: 23px;&quot;&gt;&lt;/font&gt;" style="whiteSpace=wrap;html=1;fontSize=23;fillColor=#d5e8d4;strokeColor=#82b366;rounded=1;fontStyle=0;fontFamily=Tahoma;" vertex="1" parent="1">
          <mxGeometry x="320" y="70" width="180" height="100" as="geometry" />
        </mxCell>
        <mxCell id="Tp3x3xsuuLPvGS7GtfCE-38" value="" style="edgeStyle=orthogonalEdgeStyle;rounded=0;orthogonalLoop=1;jettySize=auto;html=1;fontSize=23;" edge="1" source="Tp3x3xsuuLPvGS7GtfCE-39" target="Tp3x3xsuuLPvGS7GtfCE-41" parent="1">
          <mxGeometry relative="1" as="geometry" />
        </mxCell>
        <mxCell id="Tp3x3xsuuLPvGS7GtfCE-39" value="&lt;font style=&quot;font-size: 23px;&quot; color=&quot;#000000&quot;&gt;mostra o valor na tela&lt;br style=&quot;font-size: 23px;&quot;&gt;&lt;/font&gt;" style="whiteSpace=wrap;html=1;fontSize=23;fillColor=#d5e8d4;strokeColor=#82b366;rounded=1;fontStyle=0;fontFamily=Tahoma;" vertex="1" parent="1">
          <mxGeometry x="560" y="70" width="180" height="100" as="geometry" />
        </mxCell>
        <mxCell id="Tp3x3xsuuLPvGS7GtfCE-40" value="&lt;div style=&quot;font-size: 23px;&quot;&gt;&lt;font style=&quot;font-size: 23px;&quot;&gt;Não&lt;/font&gt;&lt;/div&gt;&lt;div style=&quot;font-size: 23px;&quot;&gt;&lt;font style=&quot;font-size: 23px;&quot;&gt;&lt;br style=&quot;font-size: 23px;&quot;&gt;&lt;/font&gt;&lt;/div&gt;&lt;div style=&quot;font-size: 23px;&quot;&gt;&lt;font style=&quot;font-size: 23px;&quot;&gt;&lt;br style=&quot;font-size: 23px;&quot;&gt;&lt;/font&gt;&lt;/div&gt;" style="edgeStyle=orthogonalEdgeStyle;rounded=0;orthogonalLoop=1;jettySize=auto;html=1;labelBackgroundColor=none;fontColor=#000000;fontSize=23;" edge="1" source="Tp3x3xsuuLPvGS7GtfCE-41" target="Tp3x3xsuuLPvGS7GtfCE-43" parent="1">
          <mxGeometry x="-0.25" y="10" relative="1" as="geometry">
            <mxPoint as="offset" />
          </mxGeometry>
        </mxCell>
        <mxCell id="Tp3x3xsuuLPvGS7GtfCE-41" value="&lt;font style=&quot;font-size: 23px;&quot; color=&quot;#000000&quot;&gt;è 1?&lt;br style=&quot;font-size: 23px;&quot;&gt;&lt;/font&gt;" style="rhombus;whiteSpace=wrap;html=1;fontSize=23;fillColor=#dae8fc;strokeColor=#6c8ebf;rounded=1;fontStyle=0;fontFamily=Tahoma;" vertex="1" parent="1">
          <mxGeometry x="870" y="80" width="160" height="80" as="geometry" />
        </mxCell>
        <mxCell id="Tp3x3xsuuLPvGS7GtfCE-42" value="" style="edgeStyle=orthogonalEdgeStyle;rounded=0;orthogonalLoop=1;jettySize=auto;html=1;fontSize=23;" edge="1" source="Tp3x3xsuuLPvGS7GtfCE-43" target="Tp3x3xsuuLPvGS7GtfCE-44" parent="1">
          <mxGeometry relative="1" as="geometry" />
        </mxCell>
        <mxCell id="Tp3x3xsuuLPvGS7GtfCE-43" value="&lt;font style=&quot;font-size: 23px;&quot; color=&quot;#000000&quot;&gt;add o valor a pontuação&lt;br style=&quot;font-size: 23px;&quot;&gt;&lt;/font&gt;" style="whiteSpace=wrap;html=1;fontSize=23;fillColor=#d5e8d4;strokeColor=#82b366;rounded=1;fontStyle=0;fontFamily=Tahoma;" vertex="1" parent="1">
          <mxGeometry x="1110" y="70" width="180" height="100" as="geometry" />
        </mxCell>
        <mxCell id="Tp3x3xsuuLPvGS7GtfCE-44" value="&lt;font style=&quot;font-size: 23px;&quot; color=&quot;#000000&quot;&gt;mostra a nova pontuação&lt;br style=&quot;font-size: 23px;&quot;&gt;&lt;/font&gt;" style="whiteSpace=wrap;html=1;fontSize=23;fillColor=#d5e8d4;strokeColor=#82b366;rounded=1;fontStyle=0;fontFamily=Tahoma;" vertex="1" parent="1">
          <mxGeometry x="1370" y="70" width="180" height="100" as="geometry" />
        </mxCell>
        <mxCell id="Tp3x3xsuuLPvGS7GtfCE-45" value="" style="edgeStyle=orthogonalEdgeStyle;rounded=0;orthogonalLoop=1;jettySize=auto;html=1;fontSize=23;" edge="1" source="Tp3x3xsuuLPvGS7GtfCE-46" target="Tp3x3xsuuLPvGS7GtfCE-41" parent="1">
          <mxGeometry relative="1" as="geometry" />
        </mxCell>
        <mxCell id="Tp3x3xsuuLPvGS7GtfCE-46" value="&lt;div style=&quot;font-size: 23px;&quot;&gt;Passa a vez&lt;/div&gt;" style="whiteSpace=wrap;html=1;fontSize=23;fillColor=#d5e8d4;strokeColor=#82b366;rounded=1;fontStyle=0;fontFamily=Tahoma;" vertex="1" parent="1">
          <mxGeometry x="860" y="230" width="180" height="100" as="geometry" />
        </mxCell>
        <mxCell id="Tp3x3xsuuLPvGS7GtfCE-47" value="Não" style="edgeStyle=orthogonalEdgeStyle;rounded=0;orthogonalLoop=1;jettySize=auto;html=1;fontSize=23;" edge="1" source="Tp3x3xsuuLPvGS7GtfCE-49" target="Tp3x3xsuuLPvGS7GtfCE-46" parent="1">
          <mxGeometry x="-0.3333" y="20" relative="1" as="geometry">
            <mxPoint x="-1" as="offset" />
          </mxGeometry>
        </mxCell>
        <mxCell id="Tp3x3xsuuLPvGS7GtfCE-48" value="Sim" style="edgeStyle=orthogonalEdgeStyle;rounded=0;orthogonalLoop=1;jettySize=auto;html=1;fontSize=23;" edge="1" source="Tp3x3xsuuLPvGS7GtfCE-49" target="Tp3x3xsuuLPvGS7GtfCE-54" parent="1">
          <mxGeometry x="-0.1026" y="-28" relative="1" as="geometry">
            <Array as="points">
              <mxPoint x="658" y="370" />
              <mxPoint x="658" y="370" />
            </Array>
            <mxPoint y="1" as="offset" />
          </mxGeometry>
        </mxCell>
        <mxCell id="Tp3x3xsuuLPvGS7GtfCE-49" value="Score &amp;gt;= 100?&lt;font style=&quot;font-size: 23px;&quot; color=&quot;#000000&quot;&gt;&lt;br style=&quot;font-size: 23px;&quot;&gt;&lt;/font&gt;" style="rhombus;whiteSpace=wrap;html=1;fontSize=23;fillColor=#dae8fc;strokeColor=#6c8ebf;rounded=1;fontStyle=0;fontFamily=Tahoma;" vertex="1" parent="1">
          <mxGeometry x="560" y="222.5" width="195" height="115" as="geometry" />
        </mxCell>
        <mxCell id="Tp3x3xsuuLPvGS7GtfCE-50" value="Sim" style="edgeStyle=orthogonalEdgeStyle;rounded=0;orthogonalLoop=1;jettySize=auto;html=1;fontSize=23;" edge="1" source="Tp3x3xsuuLPvGS7GtfCE-41" target="Tp3x3xsuuLPvGS7GtfCE-46" parent="1">
          <mxGeometry x="0.1429" y="-40" relative="1" as="geometry">
            <mxPoint as="offset" />
          </mxGeometry>
        </mxCell>
        <mxCell id="Tp3x3xsuuLPvGS7GtfCE-51" value="" style="edgeStyle=orthogonalEdgeStyle;rounded=0;orthogonalLoop=1;jettySize=auto;html=1;" edge="1" source="Tp3x3xsuuLPvGS7GtfCE-52" target="Tp3x3xsuuLPvGS7GtfCE-49" parent="1">
          <mxGeometry relative="1" as="geometry" />
        </mxCell>
        <mxCell id="Tp3x3xsuuLPvGS7GtfCE-52" value="add a pontuação ao Total Score&lt;font style=&quot;font-size: 23px;&quot; color=&quot;#000000&quot;&gt;&lt;br style=&quot;font-size: 23px;&quot;&gt;&lt;/font&gt;" style="whiteSpace=wrap;html=1;fontSize=23;fillColor=#d5e8d4;strokeColor=#82b366;rounded=1;fontStyle=0;fontFamily=Tahoma;" vertex="1" parent="1">
          <mxGeometry x="320" y="230" width="180" height="100" as="geometry" />
        </mxCell>
        <mxCell id="Tp3x3xsuuLPvGS7GtfCE-53" value="" style="edgeStyle=orthogonalEdgeStyle;rounded=0;orthogonalLoop=1;jettySize=auto;html=1;" edge="1" source="Tp3x3xsuuLPvGS7GtfCE-59" target="Tp3x3xsuuLPvGS7GtfCE-52" parent="1">
          <mxGeometry relative="1" as="geometry" />
        </mxCell>
        <mxCell id="Tp3x3xsuuLPvGS7GtfCE-54" value="Jogador atual vence!&lt;font style=&quot;font-size: 23px;&quot; color=&quot;#000000&quot;&gt;&lt;br style=&quot;font-size: 23px;&quot;&gt;&lt;/font&gt;" style="whiteSpace=wrap;html=1;fontSize=23;fillColor=#f8cecc;strokeColor=#b85450;rounded=1;fontStyle=0;fontFamily=Tahoma;" vertex="1" parent="1">
          <mxGeometry x="560" y="420" width="180" height="100" as="geometry" />
        </mxCell>
        <mxCell id="Tp3x3xsuuLPvGS7GtfCE-55" value="" style="edgeStyle=orthogonalEdgeStyle;rounded=0;orthogonalLoop=1;jettySize=auto;html=1;" edge="1" target="Tp3x3xsuuLPvGS7GtfCE-57" parent="1">
          <mxGeometry relative="1" as="geometry">
            <mxPoint x="260" y="620" as="sourcePoint" />
          </mxGeometry>
        </mxCell>
        <mxCell id="Tp3x3xsuuLPvGS7GtfCE-56" value="" style="edgeStyle=orthogonalEdgeStyle;rounded=0;orthogonalLoop=1;jettySize=auto;html=1;" edge="1" source="Tp3x3xsuuLPvGS7GtfCE-57" target="Tp3x3xsuuLPvGS7GtfCE-58" parent="1">
          <mxGeometry relative="1" as="geometry" />
        </mxCell>
        <mxCell id="Tp3x3xsuuLPvGS7GtfCE-57" value="A pontuação volta a ser 0&lt;font style=&quot;font-size: 23px;&quot; color=&quot;#000000&quot;&gt;&lt;br style=&quot;font-size: 23px;&quot;&gt;&lt;/font&gt;" style="whiteSpace=wrap;html=1;fontSize=23;fillColor=#d5e8d4;strokeColor=#82b366;rounded=1;fontStyle=0;fontFamily=Tahoma;" vertex="1" parent="1">
          <mxGeometry x="320" y="570" width="180" height="100" as="geometry" />
        </mxCell>
        <mxCell id="Tp3x3xsuuLPvGS7GtfCE-58" value="Jogador 1 começa a partida&lt;font style=&quot;font-size: 23px;&quot; color=&quot;#000000&quot;&gt;&lt;br style=&quot;font-size: 23px;&quot;&gt;&lt;/font&gt;" style="whiteSpace=wrap;html=1;fontSize=23;fillColor=#d5e8d4;strokeColor=#82b366;rounded=1;fontStyle=0;fontFamily=Tahoma;" vertex="1" parent="1">
          <mxGeometry x="560" y="570" width="180" height="100" as="geometry" />
        </mxCell>
        <mxCell id="Tp3x3xsuuLPvGS7GtfCE-59" value="Usuário salva a pontuação" style="rounded=1;html=1;fillColor=#fff2cc;strokeColor=#d6b656;fontColor=#000000;fontSize=28;whiteSpace=wrap;fontStyle=0;fontFamily=Tahoma;" vertex="1" parent="1">
          <mxGeometry x="40" y="230" width="220" height="100" as="geometry" />
        </mxCell>
        <mxCell id="Tp3x3xsuuLPvGS7GtfCE-60" value="" style="edgeStyle=orthogonalEdgeStyle;rounded=0;orthogonalLoop=1;jettySize=auto;html=1;fontSize=23;" edge="1" target="Tp3x3xsuuLPvGS7GtfCE-62" parent="1">
          <mxGeometry relative="1" as="geometry">
            <mxPoint x="260" y="120" as="sourcePoint" />
          </mxGeometry>
        </mxCell>
        <mxCell id="Tp3x3xsuuLPvGS7GtfCE-61" value="" style="edgeStyle=orthogonalEdgeStyle;rounded=0;orthogonalLoop=1;jettySize=auto;html=1;fontSize=23;" edge="1" source="Tp3x3xsuuLPvGS7GtfCE-62" parent="1">
          <mxGeometry relative="1" as="geometry">
            <mxPoint x="560" y="120" as="targetPoint" />
          </mxGeometry>
        </mxCell>
        <mxCell id="Tp3x3xsuuLPvGS7GtfCE-62" value="&lt;font style=&quot;font-size: 23px;&quot; color=&quot;#000000&quot;&gt;gera um valor aleatorio&lt;br style=&quot;font-size: 23px;&quot;&gt;&lt;/font&gt;" style="whiteSpace=wrap;html=1;fontSize=23;fillColor=#d5e8d4;strokeColor=#82b366;rounded=1;fontStyle=0;fontFamily=Tahoma;" vertex="1" parent="1">
          <mxGeometry x="320" y="70" width="180" height="100" as="geometry" />
        </mxCell>
        <mxCell id="Tp3x3xsuuLPvGS7GtfCE-63" value="" style="edgeStyle=orthogonalEdgeStyle;rounded=0;orthogonalLoop=1;jettySize=auto;html=1;fontSize=23;" edge="1" source="Tp3x3xsuuLPvGS7GtfCE-64" target="Tp3x3xsuuLPvGS7GtfCE-66" parent="1">
          <mxGeometry relative="1" as="geometry" />
        </mxCell>
        <mxCell id="Tp3x3xsuuLPvGS7GtfCE-64" value="&lt;font style=&quot;font-size: 23px;&quot; color=&quot;#000000&quot;&gt;mostra o valor na tela&lt;br style=&quot;font-size: 23px;&quot;&gt;&lt;/font&gt;" style="whiteSpace=wrap;html=1;fontSize=23;fillColor=#d5e8d4;strokeColor=#82b366;rounded=1;fontStyle=0;fontFamily=Tahoma;" vertex="1" parent="1">
          <mxGeometry x="560" y="70" width="180" height="100" as="geometry" />
        </mxCell>
        <mxCell id="Tp3x3xsuuLPvGS7GtfCE-65" value="&lt;div style=&quot;font-size: 23px;&quot;&gt;&lt;font style=&quot;font-size: 23px;&quot;&gt;Não&lt;/font&gt;&lt;/div&gt;&lt;div style=&quot;font-size: 23px;&quot;&gt;&lt;font style=&quot;font-size: 23px;&quot;&gt;&lt;br style=&quot;font-size: 23px;&quot;&gt;&lt;/font&gt;&lt;/div&gt;&lt;div style=&quot;font-size: 23px;&quot;&gt;&lt;font style=&quot;font-size: 23px;&quot;&gt;&lt;br style=&quot;font-size: 23px;&quot;&gt;&lt;/font&gt;&lt;/div&gt;" style="edgeStyle=orthogonalEdgeStyle;rounded=0;orthogonalLoop=1;jettySize=auto;html=1;labelBackgroundColor=none;fontColor=#000000;fontSize=23;" edge="1" source="Tp3x3xsuuLPvGS7GtfCE-66" target="Tp3x3xsuuLPvGS7GtfCE-68" parent="1">
          <mxGeometry x="-0.25" y="10" relative="1" as="geometry">
            <mxPoint as="offset" />
          </mxGeometry>
        </mxCell>
        <mxCell id="Tp3x3xsuuLPvGS7GtfCE-66" value="&lt;font style=&quot;font-size: 23px;&quot; color=&quot;#000000&quot;&gt;è 1?&lt;br style=&quot;font-size: 23px;&quot;&gt;&lt;/font&gt;" style="rhombus;whiteSpace=wrap;html=1;fontSize=23;fillColor=#dae8fc;strokeColor=#6c8ebf;rounded=1;fontStyle=0;fontFamily=Tahoma;" vertex="1" parent="1">
          <mxGeometry x="870" y="80" width="160" height="80" as="geometry" />
        </mxCell>
        <mxCell id="Tp3x3xsuuLPvGS7GtfCE-67" value="" style="edgeStyle=orthogonalEdgeStyle;rounded=0;orthogonalLoop=1;jettySize=auto;html=1;fontSize=23;" edge="1" source="Tp3x3xsuuLPvGS7GtfCE-68" target="Tp3x3xsuuLPvGS7GtfCE-69" parent="1">
          <mxGeometry relative="1" as="geometry" />
        </mxCell>
        <mxCell id="Tp3x3xsuuLPvGS7GtfCE-68" value="&lt;font style=&quot;font-size: 23px;&quot; color=&quot;#000000&quot;&gt;add o valor a pontuação&lt;br style=&quot;font-size: 23px;&quot;&gt;&lt;/font&gt;" style="whiteSpace=wrap;html=1;fontSize=23;fillColor=#d5e8d4;strokeColor=#82b366;rounded=1;fontStyle=0;fontFamily=Tahoma;" vertex="1" parent="1">
          <mxGeometry x="1110" y="70" width="180" height="100" as="geometry" />
        </mxCell>
        <mxCell id="Tp3x3xsuuLPvGS7GtfCE-69" value="&lt;font style=&quot;font-size: 23px;&quot; color=&quot;#000000&quot;&gt;mostra a nova pontuação&lt;br style=&quot;font-size: 23px;&quot;&gt;&lt;/font&gt;" style="whiteSpace=wrap;html=1;fontSize=23;fillColor=#d5e8d4;strokeColor=#82b366;rounded=1;fontStyle=0;fontFamily=Tahoma;" vertex="1" parent="1">
          <mxGeometry x="1370" y="70" width="180" height="100" as="geometry" />
        </mxCell>
        <mxCell id="Tp3x3xsuuLPvGS7GtfCE-70" value="" style="edgeStyle=orthogonalEdgeStyle;rounded=0;orthogonalLoop=1;jettySize=auto;html=1;fontSize=23;" edge="1" source="Tp3x3xsuuLPvGS7GtfCE-71" target="Tp3x3xsuuLPvGS7GtfCE-66" parent="1">
          <mxGeometry relative="1" as="geometry" />
        </mxCell>
        <mxCell id="Tp3x3xsuuLPvGS7GtfCE-71" value="&lt;div style=&quot;font-size: 23px;&quot;&gt;Passa a vez&lt;/div&gt;" style="whiteSpace=wrap;html=1;fontSize=23;fillColor=#d5e8d4;strokeColor=#82b366;rounded=1;fontStyle=0;fontFamily=Tahoma;" vertex="1" parent="1">
          <mxGeometry x="860" y="230" width="180" height="100" as="geometry" />
        </mxCell>
        <mxCell id="Tp3x3xsuuLPvGS7GtfCE-72" value="Não" style="edgeStyle=orthogonalEdgeStyle;rounded=0;orthogonalLoop=1;jettySize=auto;html=1;fontSize=23;" edge="1" source="Tp3x3xsuuLPvGS7GtfCE-74" target="Tp3x3xsuuLPvGS7GtfCE-71" parent="1">
          <mxGeometry x="-0.3333" y="20" relative="1" as="geometry">
            <mxPoint x="-1" as="offset" />
          </mxGeometry>
        </mxCell>
        <mxCell id="Tp3x3xsuuLPvGS7GtfCE-73" value="Sim" style="edgeStyle=orthogonalEdgeStyle;rounded=0;orthogonalLoop=1;jettySize=auto;html=1;fontSize=23;" edge="1" source="Tp3x3xsuuLPvGS7GtfCE-74" target="Tp3x3xsuuLPvGS7GtfCE-79" parent="1">
          <mxGeometry x="-0.1026" y="-28" relative="1" as="geometry">
            <Array as="points">
              <mxPoint x="658" y="370" />
              <mxPoint x="658" y="370" />
            </Array>
            <mxPoint y="1" as="offset" />
          </mxGeometry>
        </mxCell>
        <mxCell id="Tp3x3xsuuLPvGS7GtfCE-74" value="Score &amp;gt;= 100?&lt;font style=&quot;font-size: 23px;&quot; color=&quot;#000000&quot;&gt;&lt;br style=&quot;font-size: 23px;&quot;&gt;&lt;/font&gt;" style="rhombus;whiteSpace=wrap;html=1;fontSize=23;fillColor=#dae8fc;strokeColor=#6c8ebf;rounded=1;fontStyle=0;fontFamily=Tahoma;" vertex="1" parent="1">
          <mxGeometry x="560" y="222.5" width="195" height="115" as="geometry" />
        </mxCell>
        <mxCell id="Tp3x3xsuuLPvGS7GtfCE-75" value="Sim" style="edgeStyle=orthogonalEdgeStyle;rounded=0;orthogonalLoop=1;jettySize=auto;html=1;fontSize=23;" edge="1" source="Tp3x3xsuuLPvGS7GtfCE-66" target="Tp3x3xsuuLPvGS7GtfCE-71" parent="1">
          <mxGeometry x="0.1429" y="-40" relative="1" as="geometry">
            <mxPoint as="offset" />
          </mxGeometry>
        </mxCell>
        <mxCell id="Tp3x3xsuuLPvGS7GtfCE-76" value="" style="edgeStyle=orthogonalEdgeStyle;rounded=0;orthogonalLoop=1;jettySize=auto;html=1;" edge="1" source="Tp3x3xsuuLPvGS7GtfCE-77" target="Tp3x3xsuuLPvGS7GtfCE-74" parent="1">
          <mxGeometry relative="1" as="geometry" />
        </mxCell>
        <mxCell id="Tp3x3xsuuLPvGS7GtfCE-77" value="add a pontuação ao Total Score&lt;font style=&quot;font-size: 23px;&quot; color=&quot;#000000&quot;&gt;&lt;br style=&quot;font-size: 23px;&quot;&gt;&lt;/font&gt;" style="whiteSpace=wrap;html=1;fontSize=23;fillColor=#d5e8d4;strokeColor=#82b366;rounded=1;fontStyle=0;fontFamily=Tahoma;" vertex="1" parent="1">
          <mxGeometry x="320" y="230" width="180" height="100" as="geometry" />
        </mxCell>
        <mxCell id="Tp3x3xsuuLPvGS7GtfCE-78" value="" style="edgeStyle=orthogonalEdgeStyle;rounded=0;orthogonalLoop=1;jettySize=auto;html=1;" edge="1" source="Tp3x3xsuuLPvGS7GtfCE-84" target="Tp3x3xsuuLPvGS7GtfCE-77" parent="1">
          <mxGeometry relative="1" as="geometry" />
        </mxCell>
        <mxCell id="Tp3x3xsuuLPvGS7GtfCE-79" value="Jogador atual vence!&lt;font style=&quot;font-size: 23px;&quot; color=&quot;#000000&quot;&gt;&lt;br style=&quot;font-size: 23px;&quot;&gt;&lt;/font&gt;" style="whiteSpace=wrap;html=1;fontSize=23;fillColor=#f8cecc;strokeColor=#b85450;rounded=1;fontStyle=0;fontFamily=Tahoma;" vertex="1" parent="1">
          <mxGeometry x="560" y="420" width="180" height="100" as="geometry" />
        </mxCell>
        <mxCell id="Tp3x3xsuuLPvGS7GtfCE-80" value="" style="edgeStyle=orthogonalEdgeStyle;rounded=0;orthogonalLoop=1;jettySize=auto;html=1;" edge="1" target="Tp3x3xsuuLPvGS7GtfCE-82" parent="1">
          <mxGeometry relative="1" as="geometry">
            <mxPoint x="260" y="620" as="sourcePoint" />
          </mxGeometry>
        </mxCell>
        <mxCell id="Tp3x3xsuuLPvGS7GtfCE-81" value="" style="edgeStyle=orthogonalEdgeStyle;rounded=0;orthogonalLoop=1;jettySize=auto;html=1;" edge="1" source="Tp3x3xsuuLPvGS7GtfCE-82" target="Tp3x3xsuuLPvGS7GtfCE-83" parent="1">
          <mxGeometry relative="1" as="geometry" />
        </mxCell>
        <mxCell id="Tp3x3xsuuLPvGS7GtfCE-82" value="A pontuação volta a ser 0&lt;font style=&quot;font-size: 23px;&quot; color=&quot;#000000&quot;&gt;&lt;br style=&quot;font-size: 23px;&quot;&gt;&lt;/font&gt;" style="whiteSpace=wrap;html=1;fontSize=23;fillColor=#d5e8d4;strokeColor=#82b366;rounded=1;fontStyle=0;fontFamily=Tahoma;" vertex="1" parent="1">
          <mxGeometry x="320" y="570" width="180" height="100" as="geometry" />
        </mxCell>
        <mxCell id="Tp3x3xsuuLPvGS7GtfCE-83" value="Jogador 1 começa a partida&lt;font style=&quot;font-size: 23px;&quot; color=&quot;#000000&quot;&gt;&lt;br style=&quot;font-size: 23px;&quot;&gt;&lt;/font&gt;" style="whiteSpace=wrap;html=1;fontSize=23;fillColor=#d5e8d4;strokeColor=#82b366;rounded=1;fontStyle=0;fontFamily=Tahoma;" vertex="1" parent="1">
          <mxGeometry x="560" y="570" width="180" height="100" as="geometry" />
        </mxCell>
        <mxCell id="Tp3x3xsuuLPvGS7GtfCE-84" value="Usuário salva a pontuação" style="rounded=1;html=1;fillColor=#fff2cc;strokeColor=#d6b656;fontColor=#000000;fontSize=28;whiteSpace=wrap;fontStyle=0;fontFamily=Tahoma;" vertex="1" parent="1">
          <mxGeometry x="40" y="230" width="220" height="100" as="geometry" />
        </mxCell>
        <mxCell id="Tp3x3xsuuLPvGS7GtfCE-85" value="Usuário rola o&lt;br&gt;dado" style="rounded=1;html=1;fillColor=#fff2cc;strokeColor=#d6b656;fontColor=#000000;fontSize=28;whiteSpace=wrap;fontStyle=0;fontFamily=Tahoma;" vertex="1" parent="1">
          <mxGeometry x="40" y="70" width="220" height="100" as="geometry" />
        </mxCell>
      </root>
    </mxGraphModel>
  </diagram>
</mxfile>
